<svg id="Layer_1" data-name="Layer 1" xmlns="http://www.w3.org/2000/svg" viewBox="0 0 1080 1080"><defs><style>.cls-1{fill:#4d95f5;}</style></defs><path class="cls-1" d="M836.41,581.88c0-9.39-3.93-17.43-9.58-21.17v42.35C832.48,599.32,836.41,591.28,836.41,581.88Z"/><path class="cls-1" d="M689.2,379.36H601.73v-22.3a34.3,34.3,0,0,1,34.3-34.3H654.9a34.31,34.31,0,0,1,34.3,34.3Z"/><path class="cls-1" d="M827.77,561.4a75.35,75.35,0,0,0-1.61-10.11,81.72,81.72,0,0,0-5.76-16.79L748.5,382.28a35.38,35.38,0,0,0-12.94-14.65,35,35,0,0,0-18.76-5.43H255.29V688.08H343a78.62,78.62,0,0,1,157.23,0h88.89a78.61,78.61,0,0,1,157.22,0h81.77V568.94C828.13,566.43,828,563.93,827.77,561.4ZM496.53,521.7H450.8v45.76H392.47V521.7H346.74V463.4h45.73V417.67H450.8V463.4h45.73Zm135.4,22.88a13.73,13.73,0,0,1-13.73-13.73V418.5a12.26,12.26,0,0,1,12.28-12.29h70.15a27,27,0,0,1,24.63,16.14l42.47,97.41a17.74,17.74,0,0,1-16.27,24.82Z"/><path class="cls-1" d="M421.64,618.88a69.18,69.18,0,1,0,69.16,69.2A69.17,69.17,0,0,0,421.64,618.88Zm0,97.21a28,28,0,1,1,28-28A28,28,0,0,1,421.64,716.09Z"/><path class="cls-1" d="M668.74,618.88a69.18,69.18,0,1,0,69.16,69.2A69.17,69.17,0,0,0,668.74,618.88Zm0,97.21a28,28,0,1,1,28-28A28,28,0,0,1,668.74,716.09Z"/><rect class="cls-1" x="762.09" y="632.05" width="89.19" height="56.02" rx="13.72"/><path class="cls-1" d="M317.91,674.35a13.72,13.72,0,0,1-13.72,13.72H242.44a13.72,13.72,0,0,1-13.71-13.72V645.77a13.72,13.72,0,0,1,13.71-13.72h61.75a13.72,13.72,0,0,1,13.72,13.72Z"/></svg>