<svg id="Layer_1" data-name="Layer 1" xmlns="http://www.w3.org/2000/svg" viewBox="0 0 1080 1080"><defs><style>.cls-1{fill:#4d95f5;}</style></defs><path class="cls-1" d="M661.71,676a17,17,0,0,1-7.28-5A93.64,93.64,0,0,1,647,682a101.87,101.87,0,0,1-8.23,9.27A95.77,95.77,0,0,1,604.33,713a121.4,121.4,0,0,1-40.8,7.13,90.84,90.84,0,0,1-32.38-5.22c-2.43-.84-4.8-1.83-7.18-2.89-1.88-.84-3.79-1.78-5.7-2.79a181.34,181.34,0,0,0,19.12-28.12,284.49,284.49,0,0,0,18.84-41.47c2.53-6.94,4.95-14.16,7.14-21.49,1.09-3.62,2.12-7.26,3.1-11l1.4-5.51,1.1-4.78.51-2.15-1.37-2.09a8.78,8.78,0,0,0-4-3.07l-.52-.23-4.38-.9h-.6a8.73,8.73,0,0,0-4.44.92,6,6,0,0,0-2.12,2,5.74,5.74,0,0,0-.84,2.14l-.9,3.88L549,602.62c-.91,3.46-1.86,6.92-2.89,10.35-2,6.94-4.31,13.8-6.74,20.44a267.33,267.33,0,0,1-17.55,38.94,162.84,162.84,0,0,1-18.7,27.22,152.51,152.51,0,0,1-13.08-11c-10.76-10.11-20.13-21.34-28.65-32l-4.62-5.78c-3.05-3.84-6.11-7.72-9.26-11.56-5-6-10-11.85-16.06-17.16a45.88,45.88,0,0,0-11.17-7.38,19.54,19.54,0,0,0-2.17-.85,27.81,27.81,0,0,0-13.48-1.23c-8.23,1.28-16,5.34-23.76,12.41a68.39,68.39,0,0,0-21.58,44.65,56.31,56.31,0,0,0,4.39,25.54A63.17,63.17,0,0,0,378.35,716c10.24,9.8,23.17,17.24,40.66,23.43l1.26.46c11.46,4.05,29.06,7.9,47.76,3.2,13.55-3.25,26.9-10.71,38.82-21.73a114.09,114.09,0,0,0,10.66,5.35c2.39,1.06,4.82,2,7.27,2.89a107.78,107.78,0,0,0,39.12,6.09,135.45,135.45,0,0,0,45.72-8.55A110.72,110.72,0,0,0,659.76,689a101.61,101.61,0,0,0,7.66-12A18.23,18.23,0,0,1,661.71,676ZM463.77,725.83c-11.58,2.92-24.74,2-38.42-2.86l-1-.36c-14.62-5.19-25.7-11.51-33.9-19.33a45.9,45.9,0,0,1-10.71-15,39.2,39.2,0,0,1-3.07-17.6c.73-12,6.63-24.39,15.89-33.11,3.47-3.2,8.77-7.23,14.64-8.13a10.41,10.41,0,0,1,5.28.44c.29.1.55.21.84.33a29.22,29.22,0,0,1,7.08,4.71,129.35,129.35,0,0,1,14.14,15c3,3.62,6,7.33,9,11l4.85,6c9,11.1,18.94,22.87,30.5,33.53,4.16,3.84,8.36,7.4,12.59,10.6-8.75,7.38-18.23,12.41-27.68,14.68Z"/><path class="cls-1" d="M555.34,545.88c-8.14-2.88-16.07-8.52-22.92-16.32A75.65,75.65,0,0,1,516.82,499c-4.65-18.48-4.75-38.93-.31-64.39a274.12,274.12,0,0,1,7.48-30.7c1.51-5.06,3.18-10.06,4.93-14.94a133,133,0,0,1,6.17-15c5.84-11.8,12.82-20.41,21.29-26.34,10.64-7.4,23.86-9.71,35.39-6.18l5.45,1.68-5,13.32-4.92-1.62a24.45,24.45,0,0,0-11.68-.61,28.26,28.26,0,0,0-11.31,4.83c-6.39,4.49-12,11.62-16.67,21.15-4.12,8.35-6.91,17.51-9.87,27.8a260.64,260.64,0,0,0-6.4,29.12c-3.53,22.94-3.1,41.81,1.27,57.67,2.66,9.56,6.79,17.56,12.27,23.75,5.21,6,12.18,10.11,19.56,14.47L571.1,537,567,548.47l-4.41-.67A39.84,39.84,0,0,1,555.34,545.88Z"/><path class="cls-1" d="M593.92,559.36a43.5,43.5,0,0,1-5.9-2.57l-4.11-2.18,4.21-11.88,4.54.85c9.39,1.82,18.54,3.37,27.29,1.77,8.27-1.38,16.56-5,24.65-10.78,13.37-9.61,25.56-24.05,37.27-44.14a266,266,0,0,0,13.32-26.72c4.13-9.82,7.72-18.72,9.77-27.75,2.38-10.36,2.53-19.43.36-27a28.72,28.72,0,0,0-5.71-10.84,24.79,24.79,0,0,0-9.47-6.92l-4.84-1.84,4.54-13.48,5.28,2.12c11.2,4.5,20,14.62,23.59,27.08,2.86,9.93,2.83,21-.06,33.89A127.89,127.89,0,0,1,714,454.56c-1.69,4.86-3.6,9.82-5.6,14.68a273.2,273.2,0,0,1-13.59,28.62C682.2,520.42,669.21,536.2,654,547.57a75.48,75.48,0,0,1-31.25,13.83A57.35,57.35,0,0,1,593.92,559.36Z"/><path class="cls-1" d="M581.46,342.67c1.84-5.19,5.35-8.67,7.86-7.79l14.5,9.81c1.56.56,1.87,3.73.68,7.08l-1.07,3c-1.2,3.37-3.43,5.62-5,5.05L581,358.36c-2.53-.89-3-5.83-1.19-11Z"/><path class="cls-1" d="M702.68,385.65c1.83-5.2,1.22-10.11-1.37-11.07l-18-1.68c-1.63-.57-3.9,1.68-5.06,5.05l-1.07,3c-1.19,3.37-.85,6.53.78,7.12l15.07,10c2.59.93,6.19-2.52,8-7.72Z"/><path class="cls-1" d="M566.74,597.92a25.61,25.61,0,0,1-13.8-4.89c-3.16-1.13-5.14-45.12-3.9-54.65.94-7.28,10.05-10.53,17-8.08L596.11,541c6.91,2.45,11.94,10.72,8.08,17C599.15,566.1,569.91,599,566.74,597.92Z"/><path class="cls-1" d="M677.71,630.83a30.47,30.47,0,1,0-20.36,57.44c.84.29,1.58.51,2.38.73a30.45,30.45,0,0,0,18-58.14ZM684,665.37A17.49,17.49,0,0,1,667.38,677a18,18,0,0,1-5.67-1,17,17,0,0,1-7.28-5,17.43,17.43,0,1,1,29.49-5.65Z"/></svg>