<svg id="Layer_1" data-name="Layer 1" xmlns="http://www.w3.org/2000/svg" viewBox="0 0 1440 860"><defs><style>.cls-1{fill:#008ff8;}.cls-2{opacity:0.8;}.cls-3{fill:#fff;}</style></defs><path class="cls-1" d="M455.39,601.92c5.36-47.08-14.77-84.92-40.62-124.64S329,404,274.85,409.75c-31.34,3.36-66.35,17.64-97.73,14.61C132.34,420,104.8,397.9,72,361.31c-43.95-49.08-89.4-56.24-149.15-31.12-64.13,26.95-109,95-107.24,186.59,1.25,65.63,27,128.39,71,177.15,71.2,79,229,203,451.48,77.66C423.2,723.64,447.66,669.8,455.39,601.92Z"/><g class="cls-2"><path class="cls-3" d="M455.39,601.92c5.36-47.08-14.77-84.92-40.62-124.64S329,404,274.85,409.75c-31.34,3.36-66.35,17.64-97.73,14.61C132.34,420,104.8,397.9,72,361.31c-43.95-49.08-89.4-56.24-149.15-31.12-64.13,26.95-109,95-107.24,186.59,1.25,65.63,27,128.39,71,177.15,71.2,79,229,203,451.48,77.66C423.2,723.64,447.66,669.8,455.39,601.92Z"/></g></svg>