<svg id="Layer_1" data-name="Layer 1" xmlns="http://www.w3.org/2000/svg" viewBox="0 0 1080 1080"><defs><style>.cls-1{fill:#4d95f5;}</style></defs><path class="cls-1" d="M606.67,329.14H478.91a33.33,33.33,0,0,0-33.34,33.33v64.8a33.34,33.34,0,0,0,33.34,33.3H606.67a33.31,33.31,0,0,0,33.3-33.3v-64.8A33.3,33.3,0,0,0,606.67,329.14Zm11.09,98.13a11.09,11.09,0,0,1-11.09,11.09H478.91a11.08,11.08,0,0,1-11.09-11.09v-64.8a11.09,11.09,0,0,1,11.09-11.12H606.67a11.1,11.1,0,0,1,11.09,11.12Z"/><path class="cls-1" d="M786.24,397.24H293.76a33.31,33.31,0,0,0-33.3,33.33v287a33.31,33.31,0,0,0,33.3,33.33H786.24a33.31,33.31,0,0,0,33.3-33.33v-287A33.31,33.31,0,0,0,786.24,397.24ZM622.39,587.52h-58v58H521.15v-58h-58V544.25h58v-58h43.27v58h58Z"/></svg>