<svg id="Layer_1" data-name="Layer 1" xmlns="http://www.w3.org/2000/svg" viewBox="0 0 429.35 487.21"><defs><style>.cls-1{fill:#4d95f5;}</style></defs><path class="cls-1" d="M684.47,701.38a20.17,20.17,0,0,1-8.64-5.88,112.53,112.53,0,0,1-8.88,13,121,121,0,0,1-9.77,11,113.69,113.69,0,0,1-40.82,25.85c-14.58,5.42-30.85,8.24-48.43,8.46a107.83,107.83,0,0,1-38.43-6.19c-2.88-1-5.7-2.17-8.52-3.43-2.23-1-4.5-2.11-6.77-3.31a215.21,215.21,0,0,0,22.7-33.38,338.82,338.82,0,0,0,22.36-49.22c3-8.24,5.88-16.81,8.48-25.51,1.29-4.29,2.51-8.61,3.67-13l1.66-6.55,1.31-5.67L575,605l-1.63-2.48a10.31,10.31,0,0,0-4.77-3.64l-.62-.28-5.2-1.07h-.71a10.33,10.33,0,0,0-5.27,1.1,6.85,6.85,0,0,0-2.51,2.36,6.66,6.66,0,0,0-1,2.54l-1.07,4.6-1.56,6.21c-1.07,4.11-2.2,8.21-3.43,12.28-2.42,8.24-5.11,16.39-8,24.26a317.1,317.1,0,0,1-20.82,46.22,193.5,193.5,0,0,1-22.2,32.31,183.1,183.1,0,0,1-15.53-13.05c-12.77-12-23.89-25.33-34-38l-5.48-6.86c-3.62-4.56-7.26-9.16-11-13.72-5.95-7.14-11.83-14.06-19.06-20.37a54.57,54.57,0,0,0-13.26-8.76c-.82-.36-1.68-.73-2.57-1a33.1,33.1,0,0,0-16-1.47c-9.77,1.53-19,6.34-28.2,14.73-14.95,14-24.29,33.33-25.61,53a66.72,66.72,0,0,0,5.21,30.32,74.91,74.91,0,0,0,17.43,24.68c12.16,11.64,27.5,20.46,48.26,27.81l1.5.55c13.6,4.81,34.49,9.38,56.69,3.8,16.08-3.86,31.92-12.71,46.07-25.79a135.8,135.8,0,0,0,12.65,6.34c2.84,1.26,5.72,2.39,8.63,3.43a127.77,127.77,0,0,0,46.43,7.23c19.63-.43,37.89-3.86,54.27-10.14a131.41,131.41,0,0,0,59.51-45.29,118.4,118.4,0,0,0,9.09-14.24A21.36,21.36,0,0,1,684.47,701.38Zm-234.94,59.2c-13.75,3.46-29.37,2.33-45.6-3.4l-1.2-.42c-17.36-6.16-30.5-13.66-40.24-22.94A54.55,54.55,0,0,1,349.78,716a46.45,46.45,0,0,1-3.64-20.89C347,680.86,354,666.16,365,655.81c4.11-3.8,10.41-8.58,17.37-9.65a12.4,12.4,0,0,1,6.27.52c.34.12.65.25,1,.4a34.44,34.44,0,0,1,8.4,5.58c6,5.17,11.61,11.66,16.78,17.85,3.58,4.29,7.14,8.7,10.66,13.11l5.76,7.16c10.72,13.17,22.48,27.14,36.2,39.79,4.93,4.56,9.92,8.79,14.94,12.59C472,751.92,460.74,757.89,449.53,760.58Z" transform="translate(-325.33 -296.4)"/><path class="cls-1" d="M558.21,547c-9.66-3.42-19.07-10.12-27.2-19.38-8.5-9.78-14.89-22.3-18.52-36.23-5.52-21.94-5.63-46.21-.37-76.43A326.11,326.11,0,0,1,521,378.52c1.8-6,3.78-11.94,5.86-17.73A157.26,157.26,0,0,1,534.18,343c6.93-14,15.21-24.23,25.27-31.26,12.63-8.79,28.32-11.53,42-7.34l6.47,2L602,322.21l-5.84-1.93a29,29,0,0,0-13.86-.72,33.6,33.6,0,0,0-13.43,5.73c-7.58,5.33-14.24,13.79-19.78,25.1-4.89,9.91-8.2,20.79-11.72,33a308.28,308.28,0,0,0-7.59,34.56c-4.19,27.23-3.69,49.63,1.5,68.45,3.16,11.35,8.06,20.84,14.57,28.19,6.18,7.18,14.45,12,23.21,17.18l7.86,4.66-4.83,13.64-5.23-.8A47.56,47.56,0,0,1,558.21,547Z" transform="translate(-325.33 -296.4)"/><path class="cls-1" d="M604,563a52.6,52.6,0,0,1-7-3.06l-4.88-2.58,5-14.1,5.39,1c11.14,2.17,22,4,32.39,2.11,9.82-1.64,19.65-5.94,29.26-12.8,15.87-11.4,30.34-28.54,44.23-52.39a313.34,313.34,0,0,0,15.81-31.71c4.9-11.66,9.17-22.22,11.6-32.94,2.83-12.3,3-23.06.43-32a34.15,34.15,0,0,0-6.78-12.87,29.42,29.42,0,0,0-11.24-8.21l-5.74-2.18,5.38-16,6.27,2.51c13.29,5.35,23.76,17.36,28,32.15,3.39,11.78,3.36,24.94-.07,40.22a152.26,152.26,0,0,1-5.5,18.45c-2,5.78-4.27,11.66-6.64,17.43A325.32,325.32,0,0,1,723.78,490c-15,26.77-30.41,45.5-48.47,59-11.62,8.53-24.42,14.2-37.09,16.41C626.08,567.47,614.27,566.67,604,563Z" transform="translate(-325.33 -296.4)"/><path class="cls-1" d="M589.21,305.8c2.19-6.16,6.36-10.29,9.33-9.24l17.21,11.64c1.86.66,2.22,4.43.81,8.4l-1.27,3.61c-1.42,4-4.07,6.67-5.92,6l-20.71-1.79c-3-1.05-3.6-6.91-1.42-13.06Z" transform="translate(-325.33 -296.4)"/><path class="cls-1" d="M733.09,356.81c2.18-6.17,1.45-12-1.62-13.13l-21.38-2c-1.93-.68-4.63,2-6,6l-1.28,3.61c-1.41,4-1,7.75.93,8.44l17.89,11.88c3.07,1.1,7.34-3,9.52-9.17Z" transform="translate(-325.33 -296.4)"/><path class="cls-1" d="M571.75,608.76a30.37,30.37,0,0,1-16.38-5.8c-3.76-1.34-6.1-53.56-4.64-64.87,1.12-8.64,11.93-12.5,20.14-9.59l35.73,12.67c8.21,2.9,14.18,12.72,9.6,20.13C610.21,571,575.51,610.09,571.75,608.76Z" transform="translate(-325.33 -296.4)"/><path class="cls-1" d="M703.46,647.82A36.15,36.15,0,1,0,679.29,716c1,.34,1.87.61,2.82.86a36.14,36.14,0,0,0,21.35-69Zm7.41,41a20.75,20.75,0,0,1-19.67,13.78,21.36,21.36,0,0,1-6.73-1.2,20.17,20.17,0,0,1-8.64-5.88,20.68,20.68,0,1,1,35-6.7Z" transform="translate(-325.33 -296.4)"/></svg>