<svg id="Layer_1" data-name="Layer 1" xmlns="http://www.w3.org/2000/svg" viewBox="0 0 1080 1080"><defs><style>.cls-1{fill:#4d95f5;}</style></defs><path class="cls-1" d="M396.61,776.68l71.7-126.75,4.08,2.3L511.27,600l-3.53-2,3.65-6.47,17.13,9.71a7.58,7.58,0,0,0,5.7.67,7.43,7.43,0,0,0,4.53-3.54l94.86-167.64L653.36,439,657,432.6l-18.51-10.48-15.76-8.91,36.49-64.49L677.58,353l5.81-10.25L648.55,323l-34.79-19.72L608,313.61l13.12,13.57-36.49,64.48-15.76-8.91-18.51-10.47-3.59,6.39L564,391.33,469.12,559a7.37,7.37,0,0,0-.7,5.69,7.45,7.45,0,0,0,3.53,4.53l17.13,9.71-3.65,6.45-3.54-2-24.74,60.23,4.08,2.31L402.77,749.29ZM479.47,562l92.85-164.15,6.66,3.77,38.07,21.52,6.66,3.77-23.19,41-6.66-3.77L565,447.84l-3.89,6.94,28.82,16.31,6.66,3.77-9.22,16.31-6.66-3.77L551.9,471.09l-4,6.94,28.85,16.31,6.66,3.77-9.22,16.31-35.51-20.08-3.93,7,35.52,20.05-9.25,16.31-35.49-20.08-3.92,7,35.48,20.05L547.91,561,512.4,540.87l-3.9,6.94L544,567.89l-13.11,23.19-14.55-8.25L494,570.21Z"/></svg>